<svg width="159" height="62" viewBox="0 0 159 62" fill="none" xmlns="http://www.w3.org/2000/svg">
<path fill-rule="evenodd" clip-rule="evenodd" d="M96.9725 20.9529C96.9725 27.0412 92.3479 32 86.67 32C80.9921 32 76.3676 27.0412 76.3676 20.9529C76.3676 16.4706 78.8691 12.6059 82.4569 10.8765L80.5807 5.77647L70.5909 19.1C71.0024 19.5941 71.2492 20.2471 71.2492 20.9529C71.2492 22.4353 70.1795 23.6529 68.8135 23.7588V26.8471H69.5376C69.6364 26.8471 69.7187 26.9353 69.7187 27.0588C69.7187 27.1647 69.6364 27.2529 69.5376 27.2529H67.7108C67.6121 27.2529 67.5133 27.1647 67.5133 27.0588C67.5133 26.9353 67.6121 26.8471 67.7108 26.8471H68.435V23.7588C67.2171 23.6706 66.2461 22.7 66.0322 21.4471H65.1434C64.8966 27.3059 60.3872 32 54.8574 32C49.1795 32 44.5549 27.0412 44.5549 20.9529C44.5549 14.8647 49.1795 9.90588 54.8574 9.90588C56.6019 9.90588 58.2312 10.3824 59.663 11.1941L63.185 4.77059L62.4608 2.38824L60.4366 2.81176C59.7124 2.97059 59.0212 2.45882 58.8731 1.7C58.7414 0.92353 59.2022 0.182354 59.9099 0.0235302C60.0306 7.96774e-07 60.1513 -0.00588263 60.272 0.00588208L60.4366 0.0235302L66.9702 0.57059C67.1842 0.588237 67.3488 0.782355 67.3323 1.01177C67.3158 1.22353 67.1842 1.3647 67.0196 1.4L66.9702 1.41765L63.3496 2.19412L64.0079 4.32941H80.0541L79.116 1.82353C79.116 1.81176 79.116 1.8 79.116 1.78824C79.105 1.76471 79.0995 1.74706 79.0995 1.73529C79.0885 1.71176 79.0831 1.68823 79.0831 1.6647C79.0831 1.65294 79.0831 1.64706 79.0831 1.64706C79.0831 1.64706 79.0831 1.64118 79.0831 1.62941C79.0831 1.60588 79.0885 1.58235 79.0995 1.55882C79.0995 1.55882 79.0995 1.55294 79.0995 1.54118C79.0995 1.51765 79.105 1.5 79.116 1.48823C79.116 1.47647 79.116 1.46471 79.116 1.45294C79.1269 1.42941 79.1379 1.41176 79.1489 1.4C79.1489 1.38823 79.1544 1.37647 79.1654 1.36471C79.1763 1.35294 79.1873 1.34118 79.1983 1.32941C79.2092 1.31765 79.2147 1.30588 79.2147 1.29412C79.2257 1.29412 79.2367 1.28824 79.2476 1.27647C79.2586 1.26471 79.2696 1.25294 79.2805 1.24118C79.2915 1.24118 79.3025 1.23529 79.3135 1.22353C79.3354 1.21176 79.3519 1.2 79.3628 1.18824C79.3738 1.18824 79.3848 1.18824 79.3958 1.18824C79.4177 1.17647 79.4342 1.17059 79.4451 1.17059C79.4671 1.17059 79.489 1.17059 79.511 1.17059C79.5219 1.15882 79.5329 1.15294 79.5439 1.15294H84.1026C85.0243 1.15294 85.7813 1.96471 85.7813 2.95294C85.7813 3.92353 85.0243 4.73529 84.1026 4.73529H82.605C82.3417 4.73529 82.1442 4.52353 82.1442 4.25882C82.1442 3.97647 82.3417 3.7647 82.605 3.7647H84.1026C84.5305 3.7647 84.8761 3.39412 84.8761 2.95294C84.8761 2.49412 84.5305 2.12353 84.1026 2.12353H80.2022L83.2962 10.5235C84.3495 10.1353 85.4851 9.90588 86.67 9.90588C92.3479 9.90588 96.9725 14.8647 96.9725 20.9529ZM60.453 11.6882C63.1521 13.5765 64.9953 16.7882 65.1434 20.4765H66.0322C66.1803 19.6118 66.6905 18.8706 67.3817 18.4647L63.5635 5.98823L60.453 11.6882ZM63.6293 20.4765C63.4812 17.3882 61.9507 14.7059 59.6795 13.1L55.8942 20.0353C55.993 20.1647 56.0698 20.3118 56.1247 20.4765H63.6293ZM63.6293 21.4294H56.1247C55.9436 21.9941 55.4499 22.3824 54.8739 22.3824C54.1333 22.3824 53.5243 21.7471 53.5243 20.9529C53.5243 20.1588 54.1333 19.5059 54.8739 19.5059C54.9616 19.5059 55.0439 19.5177 55.1207 19.5412L58.906 12.6059C57.7046 11.9353 56.3221 11.5471 54.8739 11.5471C50.0353 11.5471 46.1019 15.7647 46.1019 20.9529C46.1019 26.1412 50.0353 30.3588 54.8739 30.3588C59.5478 30.3588 63.3989 26.3882 63.6293 21.4294ZM70.3605 20.9529C70.3605 19.9294 69.587 19.1 68.6325 19.1C67.6944 19.1 66.9209 19.9294 66.9044 20.9353C66.9044 20.9471 66.9044 20.9529 66.9044 20.9529C66.9044 20.9529 66.9044 20.9588 66.9044 20.9706C66.9209 21.9765 67.6944 22.8059 68.6325 22.8059C69.587 22.8059 70.3605 21.9765 70.3605 20.9529ZM79.7907 5.3H64.3206L68.2539 18.1647C68.3856 18.1412 68.5118 18.1294 68.6325 18.1294C69.0933 18.1294 69.5376 18.2529 69.9162 18.4824L79.7907 5.3ZM95.442 20.9529C95.442 15.7647 91.5086 11.5471 86.6865 11.5471C85.699 11.5471 84.7609 11.7235 83.8722 12.0412L86.6371 19.5235C86.6481 19.5235 86.6645 19.5235 86.6865 19.5235C87.4271 19.5235 88.0196 20.1588 88.0196 20.9529C88.0196 21.7471 87.4271 22.4 86.6865 22.4C85.9459 22.4 85.337 21.7471 85.337 20.9529C85.337 20.5294 85.518 20.1412 85.7978 19.8765L83.0329 12.4118C80.0212 13.8941 77.9146 17.1588 77.9146 20.9529C77.9146 26.1412 81.8479 30.3588 86.6865 30.3588C91.5086 30.3588 95.442 26.1412 95.442 20.9529Z" fill="#FFBB00"/>
<path d="M4.94114 53.1418V49.1167H11.2566V41.6701H4.94114V38.1146H12.1402V30.3326H0V60.9238H12.4019V53.1418H4.94114ZM14.3653 60.9238H26.1455V52.9405H19.4046V30.3326H14.3653V60.9238ZM32.461 53.1418V49.1167H38.7765V41.6701H32.461V38.1146H39.66V30.2655H27.5199V60.9238H39.9218V53.1418H32.461ZM49.6077 61.5946C52.5201 61.5946 54.8107 59.4479 56.2832 55.4898L53.1091 49.6533C52.2583 51.9343 51.2111 53.276 49.8695 53.276C47.7753 53.276 46.3682 50.2571 46.3682 45.6282C46.3682 40.9322 47.7753 37.9804 49.8695 37.9804C51.2111 37.9804 52.2583 39.255 53.1091 41.5359L56.2832 35.6995C54.8107 31.8085 52.5201 29.5946 49.6077 29.5946C44.7975 29.5946 41.2962 36.1691 41.2962 45.6282C41.2962 55.0202 44.7975 61.5946 49.6077 61.5946ZM60.8971 60.9238H65.9037V38.3158H70.2885V30.2655H56.5122V38.3158H60.8971V60.9238ZM80.5308 60.9238H85.8973L82.7559 51.4647C84.5557 49.5863 85.5701 46.2319 85.5701 41.8714C85.5701 34.7602 82.9523 30.3326 78.7637 30.3326H71.5974V60.9238H76.6368V53.2089H77.9784L80.5308 60.9238ZM80.5308 41.8714C80.5308 44.0852 79.8436 45.4269 78.4692 45.4269H76.6368V38.2487H78.4692C79.8436 38.2487 80.5308 39.6575 80.5308 41.8714ZM87.5007 60.9238H92.54V30.3326H87.5007V60.9238ZM102.684 61.5946C105.596 61.5946 107.92 59.4479 109.392 55.4898L106.185 49.6533C105.335 51.9343 104.287 53.276 102.946 53.276C100.852 53.276 99.4445 50.2571 99.4445 45.6282C99.4445 40.9322 100.852 37.9804 102.946 37.9804C104.287 37.9804 105.335 39.255 106.185 41.5359L109.392 35.6995C107.92 31.8085 105.596 29.5946 102.684 29.5946C97.8738 29.5946 94.3725 36.2362 94.3725 45.6282C94.3725 55.0202 97.8738 61.5946 102.684 61.5946ZM122.972 30.3326V43.951H113.614V30.3326H112.043V60.9238H113.614V46.7687H122.972V60.9238H124.51V30.3326H122.972ZM135.93 61.1921C140.413 61.1921 143.751 54.5506 143.751 45.6282C143.751 36.6387 140.413 30.0642 135.93 30.0642C131.415 30.0642 128.077 36.7058 128.077 45.6282C128.077 54.5506 131.415 61.1921 135.93 61.1921ZM135.93 58.3074C132.331 58.3074 129.648 52.9406 129.648 45.6282C129.648 38.3158 132.331 32.9489 135.93 32.9489C139.497 32.9489 142.18 38.3158 142.18 45.6282C142.18 52.9406 139.497 58.3074 135.93 58.3074ZM152.881 30.3326H147.285V60.9238H148.889V51.2634H152.881C156.677 51.2634 159 47.3053 159 40.798C159 34.2236 156.677 30.3326 152.881 30.3326ZM152.848 48.3787H148.889V33.0831H152.848C155.826 33.0831 157.397 35.9007 157.397 40.798C157.397 45.6282 155.826 48.3787 152.848 48.3787Z" fill="white"/>
</svg>
