<svg width="136" height="32" viewBox="0 0 136 32" fill="none" xmlns="http://www.w3.org/2000/svg">
<path d="M4.22639 23.5472V19.522H9.62832V12.0755H4.22639V8.51992H10.384V0.73797H0V31.3291H10.6079V23.5472H4.22639ZM12.2873 31.3291H22.3634V23.3459H16.5977V0.73797H12.2873V31.3291ZM27.7654 23.5472V19.522H33.1673V12.0755H27.7654V8.51992H33.923V0.670859H23.539V31.3291H34.1469V23.5472H27.7654ZM42.4318 32C44.9228 32 46.8821 29.8533 48.1416 25.8952L45.4266 20.0587C44.6989 22.3396 43.8032 23.6813 42.6557 23.6813C40.8644 23.6813 39.6608 20.6625 39.6608 16.0336C39.6608 11.3375 40.8644 8.38574 42.6557 8.38574C43.8032 8.38574 44.6989 9.66037 45.4266 11.9413L48.1416 6.10484C46.8821 2.21386 44.9228 0 42.4318 0C38.3173 0 35.3225 6.57444 35.3225 16.0336C35.3225 25.4256 38.3173 32 42.4318 32ZM52.0881 31.3291H56.3704V8.72117H60.121V0.670859H48.3375V8.72117H52.0881V31.3291ZM68.8817 31.3291H73.4719L70.7849 21.87C72.3243 19.9916 73.192 16.6373 73.192 12.2767C73.192 5.16561 70.9529 0.73797 67.3702 0.73797H61.2406V31.3291H65.5509V23.6143H66.6985L68.8817 31.3291ZM68.8817 12.2767C68.8817 14.4906 68.2939 15.8323 67.1183 15.8323H65.5509V8.6541H67.1183C68.2939 8.6541 68.8817 10.0629 68.8817 12.2767ZM74.8434 31.3291H79.1537V0.73797H74.8434V31.3291ZM87.8304 32C90.3215 32 92.3087 29.8533 93.5682 25.8952L90.8253 20.0587C90.0975 22.3396 89.2019 23.6813 88.0543 23.6813C86.263 23.6813 85.0595 20.6625 85.0595 16.0336C85.0595 11.3375 86.263 8.38574 88.0543 8.38574C89.2019 8.38574 90.0975 9.66037 90.8253 11.9413L93.5682 6.10484C92.3087 2.21386 90.3215 0 87.8304 0C83.716 0 80.7211 6.64152 80.7211 16.0336C80.7211 25.4256 83.716 32 87.8304 32ZM105.184 0.73797V14.3564H97.1788V0.73797H95.8354V31.3291H97.1788V17.174H105.184V31.3291H106.499V0.73797H105.184ZM116.268 31.5975C120.102 31.5975 122.957 24.956 122.957 16.0336C122.957 7.04404 120.102 0.46961 116.268 0.46961C112.405 0.46961 109.55 7.11112 109.55 16.0336C109.55 24.956 112.405 31.5975 116.268 31.5975ZM116.268 28.7128C113.189 28.7128 110.894 23.3459 110.894 16.0336C110.894 8.72119 113.189 3.3543 116.268 3.3543C119.318 3.3543 121.613 8.72119 121.613 16.0336C121.613 23.3459 119.318 28.7128 116.268 28.7128ZM130.766 0.73797H125.98V31.3291H127.351V21.6687H130.766C134.013 21.6687 136 17.7107 136 11.2034C136 4.62894 134.013 0.73797 130.766 0.73797ZM130.738 18.7841H127.351V3.48848H130.738C133.285 3.48848 134.629 6.30609 134.629 11.2034C134.629 16.0335 133.285 18.7841 130.738 18.7841Z" fill="white"/>
</svg>
